<svg width="32" height="32" viewBox="0 0 32 32" fill="none" xmlns="http://www.w3.org/2000/svg">
  <!-- Calculator background -->
  <rect x="4" y="2" width="24" height="28" rx="3" fill="#2563eb" stroke="#1e40af" stroke-width="1"/>
  
  <!-- Display screen -->
  <rect x="6" y="4" width="20" height="6" rx="1" fill="#1e293b"/>
  <text x="24" y="8.5" font-family="monospace" font-size="8" fill="#10b981" text-anchor="end">123</text>
  
  <!-- Calculator buttons -->
  <!-- Row 1 -->
  <rect x="6" y="12" width="4" height="3" rx="0.5" fill="#64748b"/>
  <rect x="11" y="12" width="4" height="3" rx="0.5" fill="#64748b"/>
  <rect x="16" y="12" width="4" height="3" rx="0.5" fill="#64748b"/>
  <rect x="21" y="12" width="5" height="3" rx="0.5" fill="#dc2626"/>
  
  <!-- Row 2 -->
  <rect x="6" y="16" width="4" height="3" rx="0.5" fill="#64748b"/>
  <rect x="11" y="16" width="4" height="3" rx="0.5" fill="#64748b"/>
  <rect x="16" y="16" width="4" height="3" rx="0.5" fill="#64748b"/>
  <rect x="21" y="16" width="5" height="3" rx="0.5" fill="#dc2626"/>
  
  <!-- Row 3 -->
  <rect x="6" y="20" width="4" height="3" rx="0.5" fill="#64748b"/>
  <rect x="11" y="20" width="4" height="3" rx="0.5" fill="#64748b"/>
  <rect x="16" y="20" width="4" height="3" rx="0.5" fill="#64748b"/>
  <rect x="21" y="20" width="5" height="3" rx="0.5" fill="#dc2626"/>
  
  <!-- Row 4 -->
  <rect x="6" y="24" width="9" height="3" rx="0.5" fill="#64748b"/>
  <rect x="16" y="24" width="4" height="3" rx="0.5" fill="#64748b"/>
  <rect x="21" y="24" width="5" height="3" rx="0.5" fill="#10b981"/>
  
  <!-- Button symbols -->
  <text x="8" y="14.5" font-family="monospace" font-size="6" fill="white" text-anchor="middle">7</text>
  <text x="13" y="14.5" font-family="monospace" font-size="6" fill="white" text-anchor="middle">8</text>
  <text x="18" y="14.5" font-family="monospace" font-size="6" fill="white" text-anchor="middle">9</text>
  <text x="23.5" y="14.5" font-family="monospace" font-size="6" fill="white" text-anchor="middle">รท</text>
  
  <text x="8" y="18.5" font-family="monospace" font-size="6" fill="white" text-anchor="middle">4</text>
  <text x="13" y="18.5" font-family="monospace" font-size="6" fill="white" text-anchor="middle">5</text>
  <text x="18" y="18.5" font-family="monospace" font-size="6" fill="white" text-anchor="middle">6</text>
  <text x="23.5" y="18.5" font-family="monospace" font-size="6" fill="white" text-anchor="middle">ร</text>
  
  <text x="8" y="22.5" font-family="monospace" font-size="6" fill="white" text-anchor="middle">1</text>
  <text x="13" y="22.5" font-family="monospace" font-size="6" fill="white" text-anchor="middle">2</text>
  <text x="18" y="22.5" font-family="monospace" font-size="6" fill="white" text-anchor="middle">3</text>
  <text x="23.5" y="22.5" font-family="monospace" font-size="6" fill="white" text-anchor="middle">-</text>
  
  <text x="10.5" y="26.5" font-family="monospace" font-size="6" fill="white" text-anchor="middle">0</text>
  <text x="18" y="26.5" font-family="monospace" font-size="6" fill="white" text-anchor="middle">.</text>
  <text x="23.5" y="26.5" font-family="monospace" font-size="6" fill="white" text-anchor="middle">=</text>
</svg>
